<svg viewBox="0 0 800 600" xmlns="http://www.w3.org/2000/svg" role="img" aria-label="Gruppo agonistico">
<title>Gruppo agonistico</title>
<rect width="800" height="600" fill="#C31E2A"/><line x1="400.0" y1="300.0" x2="1300.0" y2="300.0" stroke="#8F1620" stroke-width="10" opacity="0.18"/><line x1="400.0" y1="300.0" x2="1255.9508646656382" y2="578.1152949374526" stroke="#8F1620" stroke-width="10" opacity="0.18"/><line x1="400.0" y1="300.0" x2="1128.1152949374527" y2="829.0067270632259" stroke="#8F1620" stroke-width="10" opacity="0.18"/><line x1="400.0" y1="300.0" x2="929.0067270632259" y2="1028.1152949374527" stroke="#8F1620" stroke-width="10" opacity="0.18"/><line x1="400.0" y1="300.0" x2="678.1152949374527" y2="1155.9508646656382" stroke="#8F1620" stroke-width="10" opacity="0.18"/><line x1="400.0" y1="300.0" x2="400.00000000000006" y2="1200.0" stroke="#8F1620" stroke-width="10" opacity="0.18"/><line x1="400.0" y1="300.0" x2="121.88470506254737" y2="1155.9508646656382" stroke="#8F1620" stroke-width="10" opacity="0.18"/><line x1="400.0" y1="300.0" x2="-129.00672706322575" y2="1028.1152949374527" stroke="#8F1620" stroke-width="10" opacity="0.18"/><line x1="400.0" y1="300.0" x2="-328.11529493745263" y2="829.0067270632259" stroke="#8F1620" stroke-width="10" opacity="0.18"/><line x1="400.0" y1="300.0" x2="-455.95086466563816" y2="578.1152949374527" stroke="#8F1620" stroke-width="10" opacity="0.18"/><line x1="400.0" y1="300.0" x2="-500.0" y2="300.0000000000001" stroke="#8F1620" stroke-width="10" opacity="0.18"/><line x1="400.0" y1="300.0" x2="-455.9508646656383" y2="21.884705062547425" stroke="#8F1620" stroke-width="10" opacity="0.18"/><line x1="400.0" y1="300.0" x2="-328.11529493745286" y2="-229.00672706322575" stroke="#8F1620" stroke-width="10" opacity="0.18"/><line x1="400.0" y1="300.0" x2="-129.00672706322587" y2="-428.11529493745263" stroke="#8F1620" stroke-width="10" opacity="0.18"/><line x1="400.0" y1="300.0" x2="121.8847050625472" y2="-555.9508646656382" stroke="#8F1620" stroke-width="10" opacity="0.18"/><line x1="400.0" y1="300.0" x2="399.99999999999983" y2="-600.0" stroke="#8F1620" stroke-width="10" opacity="0.18"/><line x1="400.0" y1="300.0" x2="678.1152949374525" y2="-555.9508646656383" stroke="#8F1620" stroke-width="10" opacity="0.18"/><line x1="400.0" y1="300.0" x2="929.0067270632256" y2="-428.11529493745286" stroke="#8F1620" stroke-width="10" opacity="0.18"/><line x1="400.0" y1="300.0" x2="1128.1152949374527" y2="-229.00672706322598" stroke="#8F1620" stroke-width="10" opacity="0.18"/><line x1="400.0" y1="300.0" x2="1255.9508646656382" y2="21.88470506254714" stroke="#8F1620" stroke-width="10" opacity="0.18"/>
<g transform="translate(400,300)" fill="none" stroke="#FFFFFF" stroke-width="14" stroke-linecap="round" stroke-linejoin="round">
  <circle cx="0" cy="-170" r="30" fill="#FFFFFF" stroke="none"/>
  <path d="M 0 -140 L 0 -40"/>
  <path d="M 0 -110 L -140 -170"/>
  <path d="M 0 -110 L 140 -60"/>
  <path d="M 0 -40 L -70 90 L -40 190"/>
  <path d="M 0 -40 L 90 40 L 60 170"/>
</g>
</svg>