<svg viewBox="0 0 800 600" xmlns="http://www.w3.org/2000/svg" role="img" aria-label="Allenamento tecnico sul tatami">
<title>Allenamento tecnico sul tatami</title>
<rect width="800" height="600" fill="#C31E2A"/>
<g stroke="#8F1620" stroke-width="26" opacity="0.5">
<line x1="-200" y1="0" x2="-460" y2="600"/><line x1="-130" y1="0" x2="-390" y2="600"/><line x1="-60" y1="0" x2="-320" y2="600"/><line x1="10" y1="0" x2="-250" y2="600"/><line x1="80" y1="0" x2="-180" y2="600"/><line x1="150" y1="0" x2="-110" y2="600"/><line x1="220" y1="0" x2="-40" y2="600"/><line x1="290" y1="0" x2="30" y2="600"/><line x1="360" y1="0" x2="100" y2="600"/><line x1="430" y1="0" x2="170" y2="600"/><line x1="500" y1="0" x2="240" y2="600"/><line x1="570" y1="0" x2="310" y2="600"/><line x1="640" y1="0" x2="380" y2="600"/><line x1="710" y1="0" x2="450" y2="600"/><line x1="780" y1="0" x2="520" y2="600"/><line x1="850" y1="0" x2="590" y2="600"/><line x1="920" y1="0" x2="660" y2="600"/><line x1="990" y1="0" x2="730" y2="600"/><line x1="1060" y1="0" x2="800" y2="600"/><line x1="1130" y1="0" x2="870" y2="600"/>
</g>
<g transform="translate(400,300)" fill="none" stroke="#FFFFFF" stroke-width="14" stroke-linecap="round" stroke-linejoin="round">
  <circle cx="-30" cy="-150" r="34" fill="#FFFFFF" stroke="none"/>
  <path d="M -30 -116 L -30 -20 L -110 60"/>
  <path d="M -30 -20 L 60 -55 L 130 -125"/>
  <path d="M -30 -20 L 20 90 L -10 190"/>
  <path d="M -30 -20 L -90 70 L -70 180"/>
  <path d="M -170 100 L -60 60 L 40 100" opacity="0.55"/>
</g>
</svg>