<svg viewBox="0 0 800 600" xmlns="http://www.w3.org/2000/svg" role="img" aria-label="Premiazione di fine gara">
<title>Premiazione di fine gara</title>
<rect width="800" height="600" fill="#C31E2A"/><circle cx="709" cy="484" r="11" fill="#8F1620" opacity="0.46"/><circle cx="328" cy="83" r="14" fill="#8F1620" opacity="0.31"/><circle cx="426" cy="451" r="13" fill="#8F1620" opacity="0.26"/><circle cx="785" cy="200" r="6" fill="#8F1620" opacity="0.45"/><circle cx="631" cy="407" r="9" fill="#8F1620" opacity="0.33"/><circle cx="742" cy="141" r="9" fill="#8F1620" opacity="0.24"/><circle cx="94" cy="10" r="7" fill="#8F1620" opacity="0.47"/><circle cx="298" cy="207" r="8" fill="#8F1620" opacity="0.46"/><circle cx="90" cy="170" r="5" fill="#8F1620" opacity="0.49"/><circle cx="724" cy="168" r="13" fill="#8F1620" opacity="0.34"/><circle cx="211" cy="358" r="15" fill="#8F1620" opacity="0.44"/><circle cx="589" cy="26" r="13" fill="#8F1620" opacity="0.45"/><circle cx="163" cy="195" r="7" fill="#8F1620" opacity="0.47"/><circle cx="467" cy="393" r="13" fill="#8F1620" opacity="0.26"/><circle cx="722" cy="550" r="8" fill="#8F1620" opacity="0.3"/><circle cx="561" cy="97" r="6" fill="#8F1620" opacity="0.22"/><circle cx="681" cy="458" r="12" fill="#8F1620" opacity="0.43"/><circle cx="366" cy="68" r="16" fill="#8F1620" opacity="0.26"/><circle cx="758" cy="204" r="11" fill="#8F1620" opacity="0.32"/><circle cx="789" cy="431" r="8" fill="#8F1620" opacity="0.38"/><circle cx="581" cy="205" r="13" fill="#8F1620" opacity="0.33"/><circle cx="45" cy="489" r="9" fill="#8F1620" opacity="0.39"/><circle cx="117" cy="489" r="16" fill="#8F1620" opacity="0.29"/><circle cx="658" cy="289" r="8" fill="#8F1620" opacity="0.25"/><circle cx="371" cy="353" r="14" fill="#8F1620" opacity="0.41"/><circle cx="164" cy="241" r="12" fill="#8F1620" opacity="0.23"/><circle cx="14" cy="226" r="15" fill="#8F1620" opacity="0.48"/><circle cx="507" cy="276" r="11" fill="#8F1620" opacity="0.35"/><circle cx="297" cy="295" r="14" fill="#8F1620" opacity="0.24"/><circle cx="458" cy="467" r="9" fill="#8F1620" opacity="0.4"/><circle cx="639" cy="358" r="10" fill="#8F1620" opacity="0.44"/><circle cx="219" cy="73" r="4" fill="#8F1620" opacity="0.43"/><circle cx="628" cy="342" r="13" fill="#8F1620" opacity="0.3"/><circle cx="498" cy="223" r="8" fill="#8F1620" opacity="0.45"/><circle cx="308" cy="229" r="16" fill="#8F1620" opacity="0.3"/><circle cx="637" cy="326" r="15" fill="#8F1620" opacity="0.35"/><circle cx="522" cy="575" r="16" fill="#8F1620" opacity="0.4"/><circle cx="388" cy="35" r="14" fill="#8F1620" opacity="0.23"/><circle cx="704" cy="124" r="7" fill="#8F1620" opacity="0.42"/><circle cx="263" cy="235" r="4" fill="#8F1620" opacity="0.31"/><circle cx="272" cy="100" r="4" fill="#8F1620" opacity="0.49"/><circle cx="4" cy="250" r="8" fill="#8F1620" opacity="0.45"/><circle cx="512" cy="556" r="7" fill="#8F1620" opacity="0.22"/><circle cx="46" cy="461" r="14" fill="#8F1620" opacity="0.27"/><circle cx="329" cy="501" r="11" fill="#8F1620" opacity="0.48"/><circle cx="559" cy="407" r="4" fill="#8F1620" opacity="0.46"/><circle cx="46" cy="521" r="14" fill="#8F1620" opacity="0.46"/><circle cx="239" cy="464" r="13" fill="#8F1620" opacity="0.25"/><circle cx="370" cy="178" r="11" fill="#8F1620" opacity="0.4"/><circle cx="659" cy="93" r="16" fill="#8F1620" opacity="0.24"/><circle cx="617" cy="435" r="8" fill="#8F1620" opacity="0.36"/><circle cx="25" cy="116" r="11" fill="#8F1620" opacity="0.45"/><circle cx="656" cy="80" r="5" fill="#8F1620" opacity="0.32"/><circle cx="739" cy="98" r="14" fill="#8F1620" opacity="0.45"/><circle cx="146" cy="299" r="5" fill="#8F1620" opacity="0.3"/><circle cx="153" cy="64" r="13" fill="#8F1620" opacity="0.26"/><circle cx="563" cy="459" r="10" fill="#8F1620" opacity="0.35"/><circle cx="493" cy="508" r="13" fill="#8F1620" opacity="0.45"/><circle cx="403" cy="469" r="7" fill="#8F1620" opacity="0.37"/><circle cx="145" cy="158" r="14" fill="#8F1620" opacity="0.22"/><circle cx="426" cy="573" r="4" fill="#8F1620" opacity="0.3"/><circle cx="475" cy="509" r="6" fill="#8F1620" opacity="0.43"/><circle cx="584" cy="550" r="5" fill="#8F1620" opacity="0.46"/><circle cx="353" cy="281" r="10" fill="#8F1620" opacity="0.34"/><circle cx="216" cy="219" r="15" fill="#8F1620" opacity="0.29"/><circle cx="513" cy="91" r="16" fill="#8F1620" opacity="0.25"/><circle cx="325" cy="117" r="5" fill="#8F1620" opacity="0.42"/><circle cx="644" cy="259" r="14" fill="#8F1620" opacity="0.3"/><circle cx="521" cy="237" r="15" fill="#8F1620" opacity="0.41"/><circle cx="742" cy="561" r="7" fill="#8F1620" opacity="0.46"/>
<g transform="translate(400,300)" fill="none" stroke="#FFFFFF" stroke-width="14" stroke-linecap="round" stroke-linejoin="round">
  <circle cx="-30" cy="-150" r="34" fill="#FFFFFF" stroke="none"/>
  <path d="M -30 -116 L -30 -20 L -110 60"/>
  <path d="M -30 -20 L 60 -55 L 130 -125"/>
  <path d="M -30 -20 L 20 90 L -10 190"/>
  <path d="M -30 -20 L -90 70 L -70 180"/>
  <path d="M -170 100 L -60 60 L 40 100" opacity="0.55"/>
</g>
</svg>