<svg viewBox="0 0 800 600" xmlns="http://www.w3.org/2000/svg" role="img" aria-label="Assemblea e amici">
<title>Assemblea e amici</title>
<rect width="800" height="600" fill="#141210"/><line x1="400.0" y1="300.0" x2="1300.0" y2="300.0" stroke="#3A3530" stroke-width="10" opacity="0.18"/><line x1="400.0" y1="300.0" x2="1255.9508646656382" y2="578.1152949374526" stroke="#3A3530" stroke-width="10" opacity="0.18"/><line x1="400.0" y1="300.0" x2="1128.1152949374527" y2="829.0067270632259" stroke="#3A3530" stroke-width="10" opacity="0.18"/><line x1="400.0" y1="300.0" x2="929.0067270632259" y2="1028.1152949374527" stroke="#3A3530" stroke-width="10" opacity="0.18"/><line x1="400.0" y1="300.0" x2="678.1152949374527" y2="1155.9508646656382" stroke="#3A3530" stroke-width="10" opacity="0.18"/><line x1="400.0" y1="300.0" x2="400.00000000000006" y2="1200.0" stroke="#3A3530" stroke-width="10" opacity="0.18"/><line x1="400.0" y1="300.0" x2="121.88470506254737" y2="1155.9508646656382" stroke="#3A3530" stroke-width="10" opacity="0.18"/><line x1="400.0" y1="300.0" x2="-129.00672706322575" y2="1028.1152949374527" stroke="#3A3530" stroke-width="10" opacity="0.18"/><line x1="400.0" y1="300.0" x2="-328.11529493745263" y2="829.0067270632259" stroke="#3A3530" stroke-width="10" opacity="0.18"/><line x1="400.0" y1="300.0" x2="-455.95086466563816" y2="578.1152949374527" stroke="#3A3530" stroke-width="10" opacity="0.18"/><line x1="400.0" y1="300.0" x2="-500.0" y2="300.0000000000001" stroke="#3A3530" stroke-width="10" opacity="0.18"/><line x1="400.0" y1="300.0" x2="-455.9508646656383" y2="21.884705062547425" stroke="#3A3530" stroke-width="10" opacity="0.18"/><line x1="400.0" y1="300.0" x2="-328.11529493745286" y2="-229.00672706322575" stroke="#3A3530" stroke-width="10" opacity="0.18"/><line x1="400.0" y1="300.0" x2="-129.00672706322587" y2="-428.11529493745263" stroke="#3A3530" stroke-width="10" opacity="0.18"/><line x1="400.0" y1="300.0" x2="121.8847050625472" y2="-555.9508646656382" stroke="#3A3530" stroke-width="10" opacity="0.18"/><line x1="400.0" y1="300.0" x2="399.99999999999983" y2="-600.0" stroke="#3A3530" stroke-width="10" opacity="0.18"/><line x1="400.0" y1="300.0" x2="678.1152949374525" y2="-555.9508646656383" stroke="#3A3530" stroke-width="10" opacity="0.18"/><line x1="400.0" y1="300.0" x2="929.0067270632256" y2="-428.11529493745286" stroke="#3A3530" stroke-width="10" opacity="0.18"/><line x1="400.0" y1="300.0" x2="1128.1152949374527" y2="-229.00672706322598" stroke="#3A3530" stroke-width="10" opacity="0.18"/><line x1="400.0" y1="300.0" x2="1255.9508646656382" y2="21.88470506254714" stroke="#3A3530" stroke-width="10" opacity="0.18"/>
<g transform="translate(400,340)" fill="none" stroke="#F2B705" stroke-width="12" stroke-linecap="round" stroke-linejoin="round">
  <circle cx="-160" cy="70" r="60"/>
  <circle cx="160" cy="70" r="60"/>
  <path d="M -160 70 L -60 -20 L 40 -20 L 160 70"/>
  <path d="M -60 -20 L -20 70 L 90 70"/>
  <path d="M 40 -20 L 60 -90 L 130 -90"/>
  <path d="M -20 70 L -20 20" />
  <circle cx="-20" cy="-40" r="24" fill="#F2B705" stroke="none"/>
</g>
</svg>