<svg viewBox="0 0 800 600" xmlns="http://www.w3.org/2000/svg" role="img" aria-label="Serata partita in casa">
<title>Serata partita in casa</title>
<rect width="800" height="600" fill="#F2B705"/><path d="M -50 -40 Q 200.0 -80 400.0 -40 T 850 -40" fill="none" stroke="#C99400" stroke-width="6" opacity="0.45"/><path d="M -50 20 Q 200.0 -20 400.0 20 T 850 20" fill="none" stroke="#C99400" stroke-width="6" opacity="0.45"/><path d="M -50 80 Q 200.0 40 400.0 80 T 850 80" fill="none" stroke="#C99400" stroke-width="6" opacity="0.45"/><path d="M -50 140 Q 200.0 100 400.0 140 T 850 140" fill="none" stroke="#C99400" stroke-width="6" opacity="0.45"/><path d="M -50 200 Q 200.0 160 400.0 200 T 850 200" fill="none" stroke="#C99400" stroke-width="6" opacity="0.45"/><path d="M -50 260 Q 200.0 220 400.0 260 T 850 260" fill="none" stroke="#C99400" stroke-width="6" opacity="0.45"/><path d="M -50 320 Q 200.0 280 400.0 320 T 850 320" fill="none" stroke="#C99400" stroke-width="6" opacity="0.45"/><path d="M -50 380 Q 200.0 340 400.0 380 T 850 380" fill="none" stroke="#C99400" stroke-width="6" opacity="0.45"/><path d="M -50 440 Q 200.0 400 400.0 440 T 850 440" fill="none" stroke="#C99400" stroke-width="6" opacity="0.45"/><path d="M -50 500 Q 200.0 460 400.0 500 T 850 500" fill="none" stroke="#C99400" stroke-width="6" opacity="0.45"/><path d="M -50 560 Q 200.0 520 400.0 560 T 850 560" fill="none" stroke="#C99400" stroke-width="6" opacity="0.45"/><path d="M -50 620 Q 200.0 580 400.0 620 T 850 620" fill="none" stroke="#C99400" stroke-width="6" opacity="0.45"/>
<g transform="translate(400,300)" fill="none" stroke="#141210" stroke-width="14" stroke-linecap="round" stroke-linejoin="round">
  <circle cx="0" cy="60" r="46" fill="none"/>
  <path d="M -40 30 Q 0 -10 40 30" />
  <path d="M -46 60 L 46 60" opacity="0.6"/>
  <circle cx="30" cy="-170" r="30" fill="#141210" stroke="none"/>
  <path d="M 30 -140 L 10 -70"/>
  <path d="M 10 -70 L -80 -110"/>
  <path d="M 10 -70 L 90 -140"/>
  <path d="M 10 -70 L -20 40"/>
  <path d="M -20 40 L -60 150"/>
  <path d="M -20 40 L 40 150"/>
</g>
</svg>