<svg viewBox="0 0 800 600" xmlns="http://www.w3.org/2000/svg" role="img" aria-label="Il gruppo agonisti">
<title>Il gruppo agonisti</title>
<rect width="800" height="600" fill="#F2B705"/><rect x="0" y="0" width="82" height="82" fill="#C99400" opacity="0.28"/><rect x="180" y="0" width="82" height="82" fill="#C99400" opacity="0.28"/><rect x="540" y="0" width="82" height="82" fill="#C99400" opacity="0.28"/><rect x="180" y="90" width="82" height="82" fill="#C99400" opacity="0.28"/><rect x="270" y="90" width="82" height="82" fill="#C99400" opacity="0.28"/><rect x="360" y="90" width="82" height="82" fill="#C99400" opacity="0.28"/><rect x="450" y="90" width="82" height="82" fill="#C99400" opacity="0.28"/><rect x="630" y="90" width="82" height="82" fill="#C99400" opacity="0.28"/><rect x="0" y="180" width="82" height="82" fill="#C99400" opacity="0.28"/><rect x="90" y="180" width="82" height="82" fill="#C99400" opacity="0.28"/><rect x="180" y="180" width="82" height="82" fill="#C99400" opacity="0.28"/><rect x="270" y="180" width="82" height="82" fill="#C99400" opacity="0.28"/><rect x="360" y="180" width="82" height="82" fill="#C99400" opacity="0.28"/><rect x="450" y="180" width="82" height="82" fill="#C99400" opacity="0.28"/><rect x="540" y="180" width="82" height="82" fill="#C99400" opacity="0.28"/><rect x="630" y="180" width="82" height="82" fill="#C99400" opacity="0.28"/><rect x="90" y="270" width="82" height="82" fill="#C99400" opacity="0.28"/><rect x="270" y="270" width="82" height="82" fill="#C99400" opacity="0.28"/><rect x="360" y="270" width="82" height="82" fill="#C99400" opacity="0.28"/><rect x="720" y="270" width="82" height="82" fill="#C99400" opacity="0.28"/><rect x="0" y="360" width="82" height="82" fill="#C99400" opacity="0.28"/><rect x="90" y="360" width="82" height="82" fill="#C99400" opacity="0.28"/><rect x="180" y="360" width="82" height="82" fill="#C99400" opacity="0.28"/><rect x="270" y="360" width="82" height="82" fill="#C99400" opacity="0.28"/><rect x="360" y="360" width="82" height="82" fill="#C99400" opacity="0.28"/><rect x="540" y="360" width="82" height="82" fill="#C99400" opacity="0.28"/><rect x="630" y="360" width="82" height="82" fill="#C99400" opacity="0.28"/><rect x="720" y="360" width="82" height="82" fill="#C99400" opacity="0.28"/><rect x="270" y="450" width="82" height="82" fill="#C99400" opacity="0.28"/><rect x="360" y="450" width="82" height="82" fill="#C99400" opacity="0.28"/><rect x="450" y="450" width="82" height="82" fill="#C99400" opacity="0.28"/><rect x="540" y="450" width="82" height="82" fill="#C99400" opacity="0.28"/><rect x="720" y="450" width="82" height="82" fill="#C99400" opacity="0.28"/><rect x="180" y="540" width="82" height="82" fill="#C99400" opacity="0.28"/><rect x="720" y="540" width="82" height="82" fill="#C99400" opacity="0.28"/>
<g transform="translate(400,320)" fill="none" stroke="#141210" stroke-width="14" stroke-linecap="round" stroke-linejoin="round">
  <circle cx="10" cy="-160" r="32" fill="#141210" stroke="none"/>
  <path d="M 10 -128 L -10 -30 L -90 20"/>
  <path d="M -10 -30 L 90 -60 L 150 -130"/>
  <path d="M -10 -30 L 60 60 L 130 40"/>
  <path d="M -10 -30 L -60 70 L -40 170"/>
  <path d="M -110 200 L 170 200" stroke-width="18" opacity="0.7"/>
  <path d="M -40 170 L -100 210" />
</g>
</svg>